# xmcd
#
# Track frame offsets:
#	150
#	22726
#	44652
#	81533
#	104227
#	137467
#	162929
#
# Disc length: 2350 seconds
# Revision: 0
# Processed by: cddbd v1.5.2PL0 Copyright (c) Steve Scherf et al.
# Submitted via: dBpowerAMP V12.0
#
DISCID=5a092c07
DTITLE=Neal Morse - The Blues Sessions - Inner Circle - November 2016
DYEAR=2016
DGENRE=Blues
TTITLE0=It Takes a Lot to Laugh, It Takes a Train to Cry
TTITLE1=Crossroads
TTITLE2=Its My Own Fault
TTITLE3=Bye Bye Blackbird
TTITLE4=Don't Think Twice, It's Alright
TTITLE5=Highway 61 Revisited
TTITLE6=Back in the USSR
EXTD=
EXTT0=
EXTT1=
EXTT2=
EXTT3=
EXTT4=
EXTT5=
EXTT6=
PLAYORDER=
